<?xml version="1.0" standalone="no"?>
<!DOCTYPE svg PUBLIC "-//W3C//DTD SVG 20010904//EN"
 "http://www.w3.org/TR/2001/REC-SVG-20010904/DTD/svg10.dtd">
<svg version="1.0" xmlns="http://www.w3.org/2000/svg"
 width="210.000000pt" height="204.000000pt" viewBox="0 0 210.000000 204.000000"
 preserveAspectRatio="xMidYMid meet">

<g transform="translate(0.000000,204.000000) scale(0.100000,-0.100000)"
fill="#000" stroke="none">
<path fill="#fff" d="M890 1969 c-93 -16 -246 -74 -332 -125 -89 -53 -242 -195 -296 -276
-56 -81 -112 -205 -139 -305 -24 -86 -27 -117 -27 -243 0 -126 3 -157 27 -243
27 -100 83 -224 139 -305 54 -81 207 -223 296 -276 95 -56 244 -110 352 -127
103 -16 285 -6 385 21 322 86 581 338 681 666 26 83 28 101 28 264 0 163 -2
181 -28 264 -100 327 -358 580 -681 667 -92 24 -313 34 -405 18z m10 -544 c0
-316 1 -325 20 -325 13 0 53 46 131 155 l113 155 113 0 c84 0 113 -3 113 -12
0 -7 -61 -98 -135 -203 -74 -104 -135 -194 -135 -200 0 -5 68 -101 150 -213
83 -111 150 -207 150 -213 0 -6 -46 -9 -122 -7 l-121 3 -119 163 c-82 110
-126 162 -139 162 -17 0 -19 -11 -21 -162 l-3 -163 -107 -3 -108 -3 0 596 0
595 110 0 110 0 0 -325z"/>
</g>
</svg>
